<mxfile host="app.diagrams.net" agent="Mozilla/5.0 (Windows NT 10.0; Win64; x64) AppleWebKit/537.36 (KHTML, like Gecko) Chrome/134.0.0.0 Safari/537.36 Edg/134.0.0.0" version="26.1.1">
  <diagram id="WnJ1-fF-gV6t8lG7vVcI" name="Página-1">
    <mxGraphModel dx="1050" dy="569" grid="1" gridSize="10" guides="1" tooltips="1" connect="1" arrows="1" fold="1" page="1" pageScale="1" pageWidth="827" pageHeight="1169" math="0" shadow="0">
      <root>
        <mxCell id="0" />
        <mxCell id="1" parent="0" />
        <mxCell id="dvjlUylE09PWmXtx3gY3-1" value="&lt;b&gt;&lt;u&gt;nºRegNacional&lt;/u&gt;&lt;/b&gt;" style="rounded=0;whiteSpace=wrap;html=1;" parent="1" vertex="1">
          <mxGeometry x="120" y="200" width="110" height="40" as="geometry" />
        </mxCell>
        <mxCell id="dvjlUylE09PWmXtx3gY3-2" value="Farmaceutica" style="text;html=1;align=center;verticalAlign=middle;resizable=0;points=[];autosize=1;strokeColor=none;fillColor=none;" parent="1" vertex="1">
          <mxGeometry x="120" y="170" width="100" height="30" as="geometry" />
        </mxCell>
        <mxCell id="dvjlUylE09PWmXtx3gY3-3" value="nome" style="rounded=0;whiteSpace=wrap;html=1;" parent="1" vertex="1">
          <mxGeometry x="230" y="200" width="110" height="40" as="geometry" />
        </mxCell>
        <mxCell id="dvjlUylE09PWmXtx3gY3-4" value="&lt;b&gt;&lt;u&gt;Fórmula&lt;/u&gt;&lt;/b&gt;" style="rounded=0;whiteSpace=wrap;html=1;" parent="1" vertex="1">
          <mxGeometry x="120" y="320" width="110" height="40" as="geometry" />
        </mxCell>
        <mxCell id="dvjlUylE09PWmXtx3gY3-5" value="Farmaco" style="text;html=1;align=center;verticalAlign=middle;resizable=0;points=[];autosize=1;strokeColor=none;fillColor=none;" parent="1" vertex="1">
          <mxGeometry x="135" y="290" width="70" height="30" as="geometry" />
        </mxCell>
        <mxCell id="dvjlUylE09PWmXtx3gY3-6" value="nome" style="rounded=0;whiteSpace=wrap;html=1;" parent="1" vertex="1">
          <mxGeometry x="230" y="320" width="110" height="40" as="geometry" />
        </mxCell>
        <mxCell id="dvjlUylE09PWmXtx3gY3-7" value="&lt;b&gt;&lt;u&gt;nºPrescrição&lt;/u&gt;&lt;/b&gt;" style="rounded=0;whiteSpace=wrap;html=1;" parent="1" vertex="1">
          <mxGeometry x="120" y="560" width="110" height="40" as="geometry" />
        </mxCell>
        <mxCell id="dvjlUylE09PWmXtx3gY3-8" value="Prescricao" style="text;html=1;align=center;verticalAlign=middle;resizable=0;points=[];autosize=1;strokeColor=none;fillColor=none;" parent="1" vertex="1">
          <mxGeometry x="130" y="530" width="80" height="30" as="geometry" />
        </mxCell>
        <mxCell id="dvjlUylE09PWmXtx3gY3-9" value="data" style="rounded=0;whiteSpace=wrap;html=1;" parent="1" vertex="1">
          <mxGeometry x="230" y="560" width="110" height="40" as="geometry" />
        </mxCell>
        <mxCell id="dvjlUylE09PWmXtx3gY3-10" value="&lt;u&gt;&lt;b&gt;nºUtente&lt;/b&gt;&lt;/u&gt;" style="rounded=0;whiteSpace=wrap;html=1;" parent="1" vertex="1">
          <mxGeometry x="120" y="680" width="110" height="40" as="geometry" />
        </mxCell>
        <mxCell id="dvjlUylE09PWmXtx3gY3-11" value="Paciente" style="text;html=1;align=center;verticalAlign=middle;resizable=0;points=[];autosize=1;strokeColor=none;fillColor=none;" parent="1" vertex="1">
          <mxGeometry x="135" y="650" width="70" height="30" as="geometry" />
        </mxCell>
        <mxCell id="dvjlUylE09PWmXtx3gY3-12" value="nome" style="rounded=0;whiteSpace=wrap;html=1;" parent="1" vertex="1">
          <mxGeometry x="230" y="680" width="110" height="40" as="geometry" />
        </mxCell>
        <mxCell id="dvjlUylE09PWmXtx3gY3-13" value="&lt;b&gt;&lt;u&gt;nºSNS&lt;/u&gt;&lt;/b&gt;" style="rounded=0;whiteSpace=wrap;html=1;" parent="1" vertex="1">
          <mxGeometry x="120" y="800" width="110" height="40" as="geometry" />
        </mxCell>
        <mxCell id="dvjlUylE09PWmXtx3gY3-14" value="Médico" style="text;html=1;align=center;verticalAlign=middle;resizable=0;points=[];autosize=1;strokeColor=none;fillColor=none;" parent="1" vertex="1">
          <mxGeometry x="140" y="770" width="60" height="30" as="geometry" />
        </mxCell>
        <mxCell id="dvjlUylE09PWmXtx3gY3-15" value="nome" style="rounded=0;whiteSpace=wrap;html=1;" parent="1" vertex="1">
          <mxGeometry x="230" y="800" width="110" height="40" as="geometry" />
        </mxCell>
        <mxCell id="dvjlUylE09PWmXtx3gY3-16" value="&lt;u&gt;&lt;b&gt;NIF&lt;/b&gt;&lt;/u&gt;" style="rounded=0;whiteSpace=wrap;html=1;" parent="1" vertex="1">
          <mxGeometry x="570" y="460" width="110" height="40" as="geometry" />
        </mxCell>
        <mxCell id="dvjlUylE09PWmXtx3gY3-17" value="Farmácia" style="text;html=1;align=center;verticalAlign=middle;resizable=0;points=[];autosize=1;strokeColor=none;fillColor=none;" parent="1" vertex="1">
          <mxGeometry x="585" y="430" width="70" height="30" as="geometry" />
        </mxCell>
        <mxCell id="dvjlUylE09PWmXtx3gY3-18" value="telefone" style="rounded=0;whiteSpace=wrap;html=1;" parent="1" vertex="1">
          <mxGeometry x="680" y="460" width="110" height="40" as="geometry" />
        </mxCell>
        <mxCell id="dvjlUylE09PWmXtx3gY3-19" value="&lt;u&gt;&lt;b&gt;Fórmula&lt;/b&gt;&lt;/u&gt;" style="rounded=0;whiteSpace=wrap;html=1;" parent="1" vertex="1">
          <mxGeometry x="120" y="440" width="110" height="40" as="geometry" />
        </mxCell>
        <mxCell id="dvjlUylE09PWmXtx3gY3-20" value="contituidaPor" style="text;html=1;align=center;verticalAlign=middle;resizable=0;points=[];autosize=1;strokeColor=none;fillColor=none;" parent="1" vertex="1">
          <mxGeometry x="125" y="410" width="90" height="30" as="geometry" />
        </mxCell>
        <mxCell id="dvjlUylE09PWmXtx3gY3-21" value="&lt;b&gt;&lt;u&gt;nºPrescrição&lt;/u&gt;&lt;/b&gt;" style="rounded=0;whiteSpace=wrap;html=1;" parent="1" vertex="1">
          <mxGeometry x="230" y="440" width="110" height="40" as="geometry" />
        </mxCell>
        <mxCell id="dvjlUylE09PWmXtx3gY3-22" value="address" style="rounded=0;whiteSpace=wrap;html=1;" parent="1" vertex="1">
          <mxGeometry x="340" y="200" width="110" height="40" as="geometry" />
        </mxCell>
        <mxCell id="dvjlUylE09PWmXtx3gY3-23" value="telefone" style="rounded=0;whiteSpace=wrap;html=1;" parent="1" vertex="1">
          <mxGeometry x="450" y="200" width="110" height="40" as="geometry" />
        </mxCell>
        <mxCell id="dvjlUylE09PWmXtx3gY3-25" value="address" style="rounded=0;whiteSpace=wrap;html=1;" parent="1" vertex="1">
          <mxGeometry x="450" y="680" width="110" height="40" as="geometry" />
        </mxCell>
        <mxCell id="dvjlUylE09PWmXtx3gY3-26" value="dataNasc" style="rounded=0;whiteSpace=wrap;html=1;" parent="1" vertex="1">
          <mxGeometry x="340" y="680" width="110" height="40" as="geometry" />
        </mxCell>
        <mxCell id="dvjlUylE09PWmXtx3gY3-27" value="especialidade" style="rounded=0;whiteSpace=wrap;html=1;" parent="1" vertex="1">
          <mxGeometry x="340" y="800" width="110" height="40" as="geometry" />
        </mxCell>
        <mxCell id="dvjlUylE09PWmXtx3gY3-28" value="address" style="rounded=0;whiteSpace=wrap;html=1;" parent="1" vertex="1">
          <mxGeometry x="900" y="460" width="110" height="40" as="geometry" />
        </mxCell>
        <mxCell id="dvjlUylE09PWmXtx3gY3-29" value="nome" style="rounded=0;whiteSpace=wrap;html=1;" parent="1" vertex="1">
          <mxGeometry x="790" y="460" width="110" height="40" as="geometry" />
        </mxCell>
        <mxCell id="dvjlUylE09PWmXtx3gY3-30" value="&lt;b&gt;&lt;u&gt;Farm_nºRegNacional&lt;/u&gt;&lt;/b&gt;" style="rounded=0;whiteSpace=wrap;html=1;" parent="1" vertex="1">
          <mxGeometry x="340" y="320" width="120" height="40" as="geometry" />
        </mxCell>
        <mxCell id="dvjlUylE09PWmXtx3gY3-31" value="" style="endArrow=classic;html=1;rounded=0;" parent="1" source="dvjlUylE09PWmXtx3gY3-30" target="dvjlUylE09PWmXtx3gY3-1" edge="1">
          <mxGeometry width="50" height="50" relative="1" as="geometry">
            <mxPoint x="530" y="510" as="sourcePoint" />
            <mxPoint x="580" y="460" as="targetPoint" />
            <Array as="points">
              <mxPoint x="400" y="280" />
              <mxPoint x="175" y="280" />
            </Array>
          </mxGeometry>
        </mxCell>
        <mxCell id="dvjlUylE09PWmXtx3gY3-32" value="FK" style="text;html=1;align=center;verticalAlign=middle;resizable=0;points=[];autosize=1;strokeColor=none;fillColor=none;" parent="1" vertex="1">
          <mxGeometry x="430" y="310" width="40" height="30" as="geometry" />
        </mxCell>
        <mxCell id="dvjlUylE09PWmXtx3gY3-33" value="" style="endArrow=classic;html=1;rounded=0;" parent="1" source="dvjlUylE09PWmXtx3gY3-19" target="dvjlUylE09PWmXtx3gY3-4" edge="1">
          <mxGeometry width="50" height="50" relative="1" as="geometry">
            <mxPoint x="155" y="430" as="sourcePoint" />
            <mxPoint x="205" y="380" as="targetPoint" />
          </mxGeometry>
        </mxCell>
        <mxCell id="dvjlUylE09PWmXtx3gY3-34" value="" style="endArrow=classic;html=1;rounded=0;" parent="1" source="dvjlUylE09PWmXtx3gY3-21" target="dvjlUylE09PWmXtx3gY3-7" edge="1">
          <mxGeometry width="50" height="50" relative="1" as="geometry">
            <mxPoint x="220" y="540" as="sourcePoint" />
            <mxPoint x="270" y="490" as="targetPoint" />
            <Array as="points">
              <mxPoint x="285" y="520" />
              <mxPoint x="175" y="520" />
            </Array>
          </mxGeometry>
        </mxCell>
        <mxCell id="dvjlUylE09PWmXtx3gY3-35" value="FK" style="text;html=1;align=center;verticalAlign=middle;resizable=0;points=[];autosize=1;strokeColor=none;fillColor=none;" parent="1" vertex="1">
          <mxGeometry x="200" y="554.5" width="40" height="30" as="geometry" />
        </mxCell>
        <mxCell id="dvjlUylE09PWmXtx3gY3-36" value="FK" style="text;html=1;align=center;verticalAlign=middle;resizable=0;points=[];autosize=1;strokeColor=none;fillColor=none;" parent="1" vertex="1">
          <mxGeometry x="200" y="430" width="40" height="30" as="geometry" />
        </mxCell>
        <mxCell id="dvjlUylE09PWmXtx3gY3-37" value="&lt;b&gt;&lt;u&gt;Paciente_NU&lt;/u&gt;&lt;/b&gt;" style="rounded=0;whiteSpace=wrap;html=1;" parent="1" vertex="1">
          <mxGeometry x="340" y="560" width="110" height="40" as="geometry" />
        </mxCell>
        <mxCell id="dvjlUylE09PWmXtx3gY3-38" value="FK" style="text;html=1;align=center;verticalAlign=middle;resizable=0;points=[];autosize=1;strokeColor=none;fillColor=none;" parent="1" vertex="1">
          <mxGeometry x="420" y="550" width="40" height="30" as="geometry" />
        </mxCell>
        <mxCell id="dvjlUylE09PWmXtx3gY3-40" value="" style="endArrow=classic;html=1;rounded=0;" parent="1" source="dvjlUylE09PWmXtx3gY3-37" target="dvjlUylE09PWmXtx3gY3-10" edge="1">
          <mxGeometry width="50" height="50" relative="1" as="geometry">
            <mxPoint x="190" y="680" as="sourcePoint" />
            <mxPoint x="190" y="600" as="targetPoint" />
            <Array as="points">
              <mxPoint x="395" y="640" />
              <mxPoint x="175" y="640" />
            </Array>
          </mxGeometry>
        </mxCell>
        <mxCell id="dvjlUylE09PWmXtx3gY3-41" value="&lt;b&gt;&lt;u&gt;Medico_nºSNS&lt;/u&gt;&lt;/b&gt;" style="rounded=0;whiteSpace=wrap;html=1;" parent="1" vertex="1">
          <mxGeometry x="450" y="560" width="120" height="40" as="geometry" />
        </mxCell>
        <mxCell id="dvjlUylE09PWmXtx3gY3-42" value="FK" style="text;html=1;align=center;verticalAlign=middle;resizable=0;points=[];autosize=1;strokeColor=none;fillColor=none;" parent="1" vertex="1">
          <mxGeometry x="540" y="555" width="40" height="30" as="geometry" />
        </mxCell>
        <mxCell id="dvjlUylE09PWmXtx3gY3-43" value="" style="endArrow=classic;html=1;rounded=0;" parent="1" source="dvjlUylE09PWmXtx3gY3-41" target="dvjlUylE09PWmXtx3gY3-13" edge="1">
          <mxGeometry width="50" height="50" relative="1" as="geometry">
            <mxPoint x="485" y="660" as="sourcePoint" />
            <mxPoint x="535" y="610" as="targetPoint" />
            <Array as="points">
              <mxPoint x="510" y="640" />
              <mxPoint x="600" y="640" />
              <mxPoint x="600" y="760" />
              <mxPoint x="175" y="760" />
            </Array>
          </mxGeometry>
        </mxCell>
        <mxCell id="dvjlUylE09PWmXtx3gY3-44" value="&lt;b&gt;&lt;u&gt;Farmacia_NIF&lt;/u&gt;&lt;/b&gt;" style="rounded=0;whiteSpace=wrap;html=1;" parent="1" vertex="1">
          <mxGeometry x="570" y="560" width="110" height="40" as="geometry" />
        </mxCell>
        <mxCell id="dvjlUylE09PWmXtx3gY3-45" value="FK" style="text;html=1;align=center;verticalAlign=middle;resizable=0;points=[];autosize=1;strokeColor=none;fillColor=none;" parent="1" vertex="1">
          <mxGeometry x="650" y="550" width="40" height="30" as="geometry" />
        </mxCell>
        <mxCell id="dvjlUylE09PWmXtx3gY3-46" value="" style="endArrow=classic;html=1;rounded=0;" parent="1" source="dvjlUylE09PWmXtx3gY3-44" target="dvjlUylE09PWmXtx3gY3-16" edge="1">
          <mxGeometry width="50" height="50" relative="1" as="geometry">
            <mxPoint x="670" y="510" as="sourcePoint" />
            <mxPoint x="720" y="460" as="targetPoint" />
          </mxGeometry>
        </mxCell>
        <mxCell id="dvjlUylE09PWmXtx3gY3-48" value="dataProcessada" style="rounded=0;whiteSpace=wrap;html=1;" parent="1" vertex="1">
          <mxGeometry x="680" y="560" width="110" height="40" as="geometry" />
        </mxCell>
      </root>
    </mxGraphModel>
  </diagram>
</mxfile>
